<svg width="349" height="520" viewBox="0 0 349 520" fill="none" xmlns="http://www.w3.org/2000/svg">
<rect width="349" height="520" fill="#E5E5E5"/>
<rect width="349" height="520" fill="white"/>
<path d="M0 0H49V34H0V0Z" fill="#C4C4C4"/>
<path fill-rule="evenodd" clip-rule="evenodd" d="M46 7H2V6H46V7Z" fill="black"/>
<path d="M8 39H339V477H8V39Z" fill="#C4C4C4"/>
<path d="M59 9H339V28H59V9Z" fill="#C4C4C4"/>
<path fill-rule="evenodd" clip-rule="evenodd" d="M46 18H2V17H46V18Z" fill="black"/>
<path fill-rule="evenodd" clip-rule="evenodd" d="M46 29H2V28H46V29Z" fill="black"/>
<path d="M247 486H339V512H247V486Z" fill="#C4C4C4"/>
<path d="M128 486H220V512H128V486Z" fill="#C4C4C4"/>
<path d="M8 485H100V511H8V485Z" fill="#C4C4C4"/>
<path d="M24.2173 501.74C24.064 501.853 23.874 501.94 23.6473 502C23.4273 502.053 23.194 502.08 22.9473 502.08C22.3073 502.08 21.8107 501.917 21.4573 501.59C21.1107 501.263 20.9373 500.783 20.9373 500.15V497.94H20.1073V496.74H20.9373V495.43H22.4973V496.74H23.8373V497.94H22.4973V500.13C22.4973 500.357 22.554 500.533 22.6673 500.66C22.7873 500.78 22.954 500.84 23.1673 500.84C23.414 500.84 23.624 500.773 23.7973 500.64L24.2173 501.74Z" fill="black"/>
<path d="M27.337 502.08C26.7704 502.08 26.2604 501.963 25.807 501.73C25.3604 501.49 25.0104 501.16 24.757 500.74C24.5037 500.32 24.377 499.843 24.377 499.31C24.377 498.777 24.5037 498.3 24.757 497.88C25.0104 497.46 25.3604 497.133 25.807 496.9C26.2604 496.66 26.7704 496.54 27.337 496.54C27.9037 496.54 28.4104 496.66 28.857 496.9C29.3037 497.133 29.6537 497.46 29.907 497.88C30.1604 498.3 30.287 498.777 30.287 499.31C30.287 499.843 30.1604 500.32 29.907 500.74C29.6537 501.16 29.3037 501.49 28.857 501.73C28.4104 501.963 27.9037 502.08 27.337 502.08ZM27.337 500.8C27.737 500.8 28.0637 500.667 28.317 500.4C28.577 500.127 28.707 499.763 28.707 499.31C28.707 498.857 28.577 498.497 28.317 498.23C28.0637 497.957 27.737 497.82 27.337 497.82C26.937 497.82 26.607 497.957 26.347 498.23C26.087 498.497 25.957 498.857 25.957 499.31C25.957 499.763 26.087 500.127 26.347 500.4C26.607 500.667 26.937 500.8 27.337 500.8Z" fill="black"/>
<path d="M36.7298 496.62V501.1C36.7298 502.087 36.4731 502.82 35.9598 503.3C35.4464 503.78 34.6964 504.02 33.7098 504.02C33.1898 504.02 32.6964 503.957 32.2298 503.83C31.7631 503.703 31.3764 503.52 31.0698 503.28L31.6898 502.16C31.9164 502.347 32.2031 502.493 32.5498 502.6C32.8964 502.713 33.2431 502.77 33.5898 502.77C34.1298 502.77 34.5264 502.647 34.7798 502.4C35.0398 502.16 35.1698 501.793 35.1698 501.3V501.07C34.7631 501.517 34.1964 501.74 33.4698 501.74C32.9764 501.74 32.5231 501.633 32.1098 501.42C31.7031 501.2 31.3798 500.893 31.1398 500.5C30.8998 500.107 30.7798 499.653 30.7798 499.14C30.7798 498.627 30.8998 498.173 31.1398 497.78C31.3798 497.387 31.7031 497.083 32.1098 496.87C32.5231 496.65 32.9764 496.54 33.4698 496.54C34.2498 496.54 34.8431 496.797 35.2498 497.31V496.62H36.7298ZM33.7798 500.46C34.1931 500.46 34.5298 500.34 34.7898 500.1C35.0564 499.853 35.1898 499.533 35.1898 499.14C35.1898 498.747 35.0564 498.43 34.7898 498.19C34.5298 497.943 34.1931 497.82 33.7798 497.82C33.3664 497.82 33.0264 497.943 32.7598 498.19C32.4931 498.43 32.3598 498.747 32.3598 499.14C32.3598 499.533 32.4931 499.853 32.7598 500.1C33.0264 500.34 33.3664 500.46 33.7798 500.46Z" fill="black"/>
<path d="M43.5817 496.62V501.1C43.5817 502.087 43.325 502.82 42.8117 503.3C42.2984 503.78 41.5484 504.02 40.5617 504.02C40.0417 504.02 39.5484 503.957 39.0817 503.83C38.615 503.703 38.2284 503.52 37.9217 503.28L38.5417 502.16C38.7684 502.347 39.055 502.493 39.4017 502.6C39.7484 502.713 40.095 502.77 40.4417 502.77C40.9817 502.77 41.3784 502.647 41.6317 502.4C41.8917 502.16 42.0217 501.793 42.0217 501.3V501.07C41.615 501.517 41.0484 501.74 40.3217 501.74C39.8284 501.74 39.375 501.633 38.9617 501.42C38.555 501.2 38.2317 500.893 37.9917 500.5C37.7517 500.107 37.6317 499.653 37.6317 499.14C37.6317 498.627 37.7517 498.173 37.9917 497.78C38.2317 497.387 38.555 497.083 38.9617 496.87C39.375 496.65 39.8284 496.54 40.3217 496.54C41.1017 496.54 41.695 496.797 42.1017 497.31V496.62H43.5817ZM40.6317 500.46C41.045 500.46 41.3817 500.34 41.6417 500.1C41.9084 499.853 42.0417 499.533 42.0417 499.14C42.0417 498.747 41.9084 498.43 41.6417 498.19C41.3817 497.943 41.045 497.82 40.6317 497.82C40.2184 497.82 39.8784 497.943 39.6117 498.19C39.345 498.43 39.2117 498.747 39.2117 499.14C39.2117 499.533 39.345 499.853 39.6117 500.1C39.8784 500.34 40.2184 500.46 40.6317 500.46Z" fill="black"/>
<path d="M44.8837 494.58H46.4437V502H44.8837V494.58Z" fill="black"/>
<path d="M53.0115 499.33C53.0115 499.35 53.0015 499.49 52.9815 499.75H48.9115C48.9848 500.083 49.1581 500.347 49.4315 500.54C49.7048 500.733 50.0448 500.83 50.4515 500.83C50.7315 500.83 50.9781 500.79 51.1915 500.71C51.4115 500.623 51.6148 500.49 51.8015 500.31L52.6315 501.21C52.1248 501.79 51.3848 502.08 50.4115 502.08C49.8048 502.08 49.2681 501.963 48.8015 501.73C48.3348 501.49 47.9748 501.16 47.7215 500.74C47.4681 500.32 47.3415 499.843 47.3415 499.31C47.3415 498.783 47.4648 498.31 47.7115 497.89C47.9648 497.463 48.3081 497.133 48.7415 496.9C49.1815 496.66 49.6715 496.54 50.2115 496.54C50.7381 496.54 51.2148 496.653 51.6415 496.88C52.0681 497.107 52.4015 497.433 52.6415 497.86C52.8881 498.28 53.0115 498.77 53.0115 499.33ZM50.2215 497.72C49.8681 497.72 49.5715 497.82 49.3315 498.02C49.0915 498.22 48.9448 498.493 48.8915 498.84H51.5415C51.4881 498.5 51.3415 498.23 51.1015 498.03C50.8615 497.823 50.5681 497.72 50.2215 497.72Z" fill="black"/>
<path d="M61.9221 496.62L59.6521 502H58.0421L55.7821 496.62H57.3921L58.8821 500.28L60.4221 496.62H61.9221Z" fill="black"/>
<path d="M62.4087 496.62H63.9687V502H62.4087V496.62ZM63.1887 495.87C62.902 495.87 62.6687 495.787 62.4887 495.62C62.3087 495.453 62.2187 495.247 62.2187 495C62.2187 494.753 62.3087 494.547 62.4887 494.38C62.6687 494.213 62.902 494.13 63.1887 494.13C63.4753 494.13 63.7087 494.21 63.8887 494.37C64.0687 494.53 64.1587 494.73 64.1587 494.97C64.1587 495.23 64.0687 495.447 63.8887 495.62C63.7087 495.787 63.4753 495.87 63.1887 495.87Z" fill="black"/>
<path d="M70.5365 499.33C70.5365 499.35 70.5265 499.49 70.5065 499.75H66.4365C66.5098 500.083 66.6831 500.347 66.9565 500.54C67.2298 500.733 67.5698 500.83 67.9765 500.83C68.2565 500.83 68.5031 500.79 68.7165 500.71C68.9365 500.623 69.1398 500.49 69.3265 500.31L70.1565 501.21C69.6498 501.79 68.9098 502.08 67.9365 502.08C67.3298 502.08 66.7931 501.963 66.3265 501.73C65.8598 501.49 65.4998 501.16 65.2465 500.74C64.9931 500.32 64.8665 499.843 64.8665 499.31C64.8665 498.783 64.9898 498.31 65.2365 497.89C65.4898 497.463 65.8331 497.133 66.2665 496.9C66.7065 496.66 67.1965 496.54 67.7365 496.54C68.2631 496.54 68.7398 496.653 69.1665 496.88C69.5931 497.107 69.9265 497.433 70.1665 497.86C70.4131 498.28 70.5365 498.77 70.5365 499.33ZM67.7465 497.72C67.3931 497.72 67.0965 497.82 66.8565 498.02C66.6165 498.22 66.4698 498.493 66.4165 498.84H69.0665C69.0131 498.5 68.8665 498.23 68.6265 498.03C68.3865 497.823 68.0931 497.72 67.7465 497.72Z" fill="black"/>
<path d="M79.9674 496.62L78.0174 502H76.5174L75.3074 498.66L74.0574 502H72.5574L70.6174 496.62H72.0874L73.3574 500.26L74.6774 496.62H75.9974L77.2774 500.26L78.5874 496.62H79.9674Z" fill="black"/>
<path d="M273.902 496.54C274.736 496.54 275.376 496.74 275.822 497.14C276.269 497.533 276.492 498.13 276.492 498.93V502H275.032V501.33C274.739 501.83 274.192 502.08 273.392 502.08C272.979 502.08 272.619 502.01 272.312 501.87C272.012 501.73 271.782 501.537 271.622 501.29C271.462 501.043 271.382 500.763 271.382 500.45C271.382 499.95 271.569 499.557 271.942 499.27C272.322 498.983 272.906 498.84 273.692 498.84H274.932C274.932 498.5 274.829 498.24 274.622 498.06C274.416 497.873 274.106 497.78 273.692 497.78C273.406 497.78 273.122 497.827 272.842 497.92C272.569 498.007 272.336 498.127 272.142 498.28L271.582 497.19C271.876 496.983 272.226 496.823 272.632 496.71C273.046 496.597 273.469 496.54 273.902 496.54ZM273.782 501.03C274.049 501.03 274.286 500.97 274.492 500.85C274.699 500.723 274.846 500.54 274.932 500.3V499.75H273.862C273.222 499.75 272.902 499.96 272.902 500.38C272.902 500.58 272.979 500.74 273.132 500.86C273.292 500.973 273.509 501.03 273.782 501.03Z" fill="black"/>
<path d="M283.293 494.58V502H281.803V501.38C281.416 501.847 280.856 502.08 280.123 502.08C279.616 502.08 279.156 501.967 278.743 501.74C278.336 501.513 278.016 501.19 277.783 500.77C277.549 500.35 277.433 499.863 277.433 499.31C277.433 498.757 277.549 498.27 277.783 497.85C278.016 497.43 278.336 497.107 278.743 496.88C279.156 496.653 279.616 496.54 280.123 496.54C280.809 496.54 281.346 496.757 281.733 497.19V494.58H283.293ZM280.393 500.8C280.786 500.8 281.113 500.667 281.373 500.4C281.633 500.127 281.763 499.763 281.763 499.31C281.763 498.857 281.633 498.497 281.373 498.23C281.113 497.957 280.786 497.82 280.393 497.82C279.993 497.82 279.663 497.957 279.403 498.23C279.143 498.497 279.013 498.857 279.013 499.31C279.013 499.763 279.143 500.127 279.403 500.4C279.663 500.667 279.993 500.8 280.393 500.8Z" fill="black"/>
<path d="M290.067 494.58V502H288.577V501.38C288.19 501.847 287.63 502.08 286.897 502.08C286.39 502.08 285.93 501.967 285.517 501.74C285.11 501.513 284.79 501.19 284.557 500.77C284.323 500.35 284.207 499.863 284.207 499.31C284.207 498.757 284.323 498.27 284.557 497.85C284.79 497.43 285.11 497.107 285.517 496.88C285.93 496.653 286.39 496.54 286.897 496.54C287.583 496.54 288.12 496.757 288.507 497.19V494.58H290.067ZM287.167 500.8C287.56 500.8 287.887 500.667 288.147 500.4C288.407 500.127 288.537 499.763 288.537 499.31C288.537 498.857 288.407 498.497 288.147 498.23C287.887 497.957 287.56 497.82 287.167 497.82C286.767 497.82 286.437 497.957 286.177 498.23C285.917 498.497 285.787 498.857 285.787 499.31C285.787 499.763 285.917 500.127 286.177 500.4C286.437 500.667 286.767 500.8 287.167 500.8Z" fill="black"/>
<path d="M295.852 502.08C295.406 502.08 294.969 502.027 294.542 501.92C294.116 501.807 293.776 501.667 293.522 501.5L294.042 500.38C294.282 500.533 294.572 500.66 294.912 500.76C295.252 500.853 295.586 500.9 295.912 500.9C296.572 500.9 296.902 500.737 296.902 500.41C296.902 500.257 296.812 500.147 296.632 500.08C296.452 500.013 296.176 499.957 295.802 499.91C295.362 499.843 294.999 499.767 294.712 499.68C294.426 499.593 294.176 499.44 293.962 499.22C293.756 499 293.652 498.687 293.652 498.28C293.652 497.94 293.749 497.64 293.942 497.38C294.142 497.113 294.429 496.907 294.802 496.76C295.182 496.613 295.629 496.54 296.142 496.54C296.522 496.54 296.899 496.583 297.272 496.67C297.652 496.75 297.966 496.863 298.212 497.01L297.692 498.12C297.219 497.853 296.702 497.72 296.142 497.72C295.809 497.72 295.559 497.767 295.392 497.86C295.226 497.953 295.142 498.073 295.142 498.22C295.142 498.387 295.232 498.503 295.412 498.57C295.592 498.637 295.879 498.7 296.272 498.76C296.712 498.833 297.072 498.913 297.352 499C297.632 499.08 297.876 499.23 298.082 499.45C298.289 499.67 298.392 499.977 298.392 500.37C298.392 500.703 298.292 501 298.092 501.26C297.892 501.52 297.599 501.723 297.212 501.87C296.832 502.01 296.379 502.08 295.852 502.08Z" fill="black"/>
<path d="M302.385 496.54C302.885 496.54 303.338 496.657 303.745 496.89C304.158 497.117 304.482 497.44 304.715 497.86C304.948 498.273 305.065 498.757 305.065 499.31C305.065 499.863 304.948 500.35 304.715 500.77C304.482 501.183 304.158 501.507 303.745 501.74C303.338 501.967 302.885 502.08 302.385 502.08C301.698 502.08 301.158 501.863 300.765 501.43V503.94H299.205V496.62H300.695V497.24C301.082 496.773 301.645 496.54 302.385 496.54ZM302.115 500.8C302.515 500.8 302.842 500.667 303.095 500.4C303.355 500.127 303.485 499.763 303.485 499.31C303.485 498.857 303.355 498.497 303.095 498.23C302.842 497.957 302.515 497.82 302.115 497.82C301.715 497.82 301.385 497.957 301.125 498.23C300.872 498.497 300.745 498.857 300.745 499.31C300.745 499.763 300.872 500.127 301.125 500.4C301.385 500.667 301.715 500.8 302.115 500.8Z" fill="black"/>
<path d="M308.519 502.08C307.953 502.08 307.443 501.963 306.989 501.73C306.543 501.49 306.193 501.16 305.939 500.74C305.686 500.32 305.559 499.843 305.559 499.31C305.559 498.777 305.686 498.3 305.939 497.88C306.193 497.46 306.543 497.133 306.989 496.9C307.443 496.66 307.953 496.54 308.519 496.54C309.086 496.54 309.593 496.66 310.039 496.9C310.486 497.133 310.836 497.46 311.089 497.88C311.343 498.3 311.469 498.777 311.469 499.31C311.469 499.843 311.343 500.32 311.089 500.74C310.836 501.16 310.486 501.49 310.039 501.73C309.593 501.963 309.086 502.08 308.519 502.08ZM308.519 500.8C308.919 500.8 309.246 500.667 309.499 500.4C309.759 500.127 309.889 499.763 309.889 499.31C309.889 498.857 309.759 498.497 309.499 498.23C309.246 497.957 308.919 497.82 308.519 497.82C308.119 497.82 307.789 497.957 307.529 498.23C307.269 498.497 307.139 498.857 307.139 499.31C307.139 499.763 307.269 500.127 307.529 500.4C307.789 500.667 308.119 500.8 308.519 500.8Z" fill="black"/>
<path d="M315.832 501.74C315.679 501.853 315.489 501.94 315.262 502C315.042 502.053 314.809 502.08 314.562 502.08C313.922 502.08 313.425 501.917 313.072 501.59C312.725 501.263 312.552 500.783 312.552 500.15V497.94H311.722V496.74H312.552V495.43H314.112V496.74H315.452V497.94H314.112V500.13C314.112 500.357 314.169 500.533 314.282 500.66C314.402 500.78 314.569 500.84 314.782 500.84C315.029 500.84 315.239 500.773 315.412 500.64L315.832 501.74Z" fill="black"/>
<path d="M161.795 497.74H163.175V498.94H161.835V503H160.275V498.94H159.445V497.74H160.275V497.5C160.275 496.887 160.455 496.4 160.815 496.04C161.182 495.68 161.695 495.5 162.355 495.5C162.589 495.5 162.809 495.527 163.015 495.58C163.229 495.627 163.405 495.697 163.545 495.79L163.135 496.92C162.955 496.793 162.745 496.73 162.505 496.73C162.032 496.73 161.795 496.99 161.795 497.51V497.74ZM164.755 497.62H166.315V503H164.755V497.62ZM165.535 496.87C165.249 496.87 165.015 496.787 164.835 496.62C164.655 496.453 164.565 496.247 164.565 496C164.565 495.753 164.655 495.547 164.835 495.38C165.015 495.213 165.249 495.13 165.535 495.13C165.822 495.13 166.055 495.21 166.235 495.37C166.415 495.53 166.505 495.73 166.505 495.97C166.505 496.23 166.415 496.447 166.235 496.62C166.055 496.787 165.822 496.87 165.535 496.87Z" fill="black"/>
<path d="M167.611 495.58H169.171V503H167.611V495.58Z" fill="black"/>
<path d="M174.33 502.74C174.176 502.853 173.986 502.94 173.76 503C173.54 503.053 173.306 503.08 173.06 503.08C172.42 503.08 171.923 502.917 171.57 502.59C171.223 502.263 171.05 501.783 171.05 501.15V498.94H170.22V497.74H171.05V496.43H172.61V497.74H173.95V498.94H172.61V501.13C172.61 501.357 172.666 501.533 172.78 501.66C172.9 501.78 173.066 501.84 173.28 501.84C173.526 501.84 173.736 501.773 173.91 501.64L174.33 502.74Z" fill="black"/>
<path d="M180.159 500.33C180.159 500.35 180.149 500.49 180.129 500.75H176.059C176.133 501.083 176.306 501.347 176.579 501.54C176.853 501.733 177.193 501.83 177.599 501.83C177.879 501.83 178.126 501.79 178.339 501.71C178.559 501.623 178.763 501.49 178.949 501.31L179.779 502.21C179.273 502.79 178.533 503.08 177.559 503.08C176.953 503.08 176.416 502.963 175.949 502.73C175.483 502.49 175.123 502.16 174.869 501.74C174.616 501.32 174.489 500.843 174.489 500.31C174.489 499.783 174.613 499.31 174.859 498.89C175.113 498.463 175.456 498.133 175.889 497.9C176.329 497.66 176.819 497.54 177.359 497.54C177.886 497.54 178.363 497.653 178.789 497.88C179.216 498.107 179.549 498.433 179.789 498.86C180.036 499.28 180.159 499.77 180.159 500.33ZM177.369 498.72C177.016 498.72 176.719 498.82 176.479 499.02C176.239 499.22 176.093 499.493 176.039 499.84H178.689C178.636 499.5 178.489 499.23 178.249 499.03C178.009 498.823 177.716 498.72 177.369 498.72Z" fill="black"/>
<path d="M182.538 498.33C182.725 498.07 182.975 497.873 183.288 497.74C183.608 497.607 183.975 497.54 184.388 497.54V498.98C184.215 498.967 184.098 498.96 184.038 498.96C183.591 498.96 183.241 499.087 182.988 499.34C182.735 499.587 182.608 499.96 182.608 500.46V503H181.048V497.62H182.538V498.33Z" fill="black"/>
</svg>
