<?xml version="1.0" standalone="no"?>
<!DOCTYPE svg PUBLIC "-//W3C//DTD SVG 20010904//EN"
 "http://www.w3.org/TR/2001/REC-SVG-20010904/DTD/svg10.dtd">
<svg version="1.0" xmlns="http://www.w3.org/2000/svg"
 width="1920.000000pt" height="1080.000000pt" viewBox="0 0 1920.000000 1080.000000"
 preserveAspectRatio="xMidYMid meet">

<g transform="translate(0.000000,1080.000000) scale(0.010000,-0.010000)"
fill="#0b3939" stroke="none">
<path d="M0 5400 l0 -5400 9600 0 9600 0 0 5400 0 5400 -9600 0 -9600 0 0
-5400z m2508 1298 c7 -7 12 -22 12 -34 0 -39 148 -244 176 -244 17 0 19 32 2
48 -18 18 -48 145 -38 156 16 16 36 -11 65 -86 36 -95 45 -104 44 -43 -2 83 4
176 11 180 17 11 28 -26 33 -116 7 -114 18 -146 53 -159 49 -19 71 -3 140 101
35 54 69 110 76 124 11 24 38 35 38 15 0 -20 -48 -126 -78 -174 -35 -54 -40
-83 -18 -92 26 -10 80 28 178 124 54 53 100 94 102 91 9 -9 -23 -80 -56 -126
-19 -26 -62 -68 -96 -93 -33 -25 -61 -50 -62 -56 0 -16 56 -23 94 -13 17 5 64
17 105 28 40 11 77 23 81 28 18 20 40 98 40 141 0 47 13 82 25 70 4 -3 12 -28
19 -55 l13 -48 27 53 c25 50 46 67 46 38 0 -25 -29 -95 -54 -132 -24 -36 -25
-64 -2 -64 28 0 97 88 125 159 19 50 30 67 35 56 11 -29 6 -69 -14 -114 -24
-52 -25 -61 -5 -61 17 0 72 82 80 123 4 15 13 27 21 27 20 0 17 -56 -6 -107
-10 -24 -15 -43 -11 -43 4 0 27 14 50 30 23 17 46 28 52 24 14 -8 -27 -51 -71
-74 -68 -34 -259 -90 -310 -90 -47 0 -130 -25 -130 -39 1 -3 19 -18 40 -33 31
-22 40 -34 40 -57 0 -26 8 -34 65 -66 77 -44 101 -71 110 -128 3 -23 11 -52
17 -64 9 -18 7 -31 -7 -64 -22 -48 -58 -69 -118 -69 -39 0 -46 3 -51 25 -10
38 -47 58 -88 47 -28 -7 -36 -16 -52 -62 -13 -35 -37 -71 -68 -102 -35 -35
-48 -56 -48 -77 0 -41 -45 -83 -84 -79 l-31 3 4 78 c3 90 9 87 -93 42 -92 -41
-156 -125 -156 -204 0 -34 -7 -49 -42 -87 -93 -100 -108 -113 -140 -116 -29
-3 -34 -8 -45 -47 -7 -24 -33 -88 -59 -143 -41 -88 -47 -110 -55 -201 -4 -56
-13 -118 -19 -137 -6 -19 -12 -98 -15 -175 -4 -131 -2 -145 23 -224 20 -63 36
-93 64 -121 21 -21 38 -42 38 -48 0 -25 -135 -30 -170 -5 -34 23 -39 33 -31
57 6 16 1 27 -20 47 -33 31 -33 27 -19 243 8 120 7 162 -5 220 -12 58 -13 105
-5 256 5 101 7 186 6 188 -7 6 -70 -101 -93 -159 -13 -33 -26 -83 -29 -112 -7
-61 -35 -135 -74 -193 -21 -30 -37 -80 -64 -203 -40 -179 -39 -193 12 -270 12
-19 21 -39 19 -45 -5 -15 -67 -29 -110 -23 -48 7 -67 22 -67 57 0 16 -8 42
-17 58 -16 28 -16 34 1 108 10 42 31 109 47 147 56 136 79 223 83 325 3 58 13
123 25 162 11 35 17 67 12 70 -15 9 0 102 20 126 14 17 15 17 -110 -1 -112
-17 -169 -12 -277 25 -70 24 -74 24 -74 2 0 -9 -13 -34 -30 -54 -45 -55 -116
-208 -163 -353 -38 -116 -42 -139 -41 -220 1 -61 9 -112 24 -160 12 -38 33
-110 47 -160 17 -59 34 -97 49 -112 31 -29 30 -51 -2 -63 -36 -14 -62 -12
-111 6 -42 16 -43 17 -37 54 6 34 4 39 -22 51 -29 14 -29 16 -37 124 -8 124
-43 384 -56 418 -8 20 -12 16 -37 -38 -24 -51 -28 -72 -28 -140 1 -82 15 -167
40 -243 8 -23 14 -55 14 -70 0 -15 12 -50 27 -79 14 -29 23 -56 19 -61 -10 -9
-125 -9 -148 0 -14 6 -18 19 -18 53 0 32 -4 45 -14 45 -23 0 -28 34 -26 184 2
77 -1 227 -5 332 l-8 192 33 63 33 63 -7 137 c-5 100 -15 169 -37 255 -40 162
-39 233 4 313 44 82 138 178 207 210 50 23 67 25 185 26 72 0 168 -6 215 -12
46 -7 147 -13 223 -13 161 0 166 2 275 97 40 34 80 63 88 63 8 0 12 5 9 10 -4
6 7 10 24 10 17 0 31 4 31 8 0 13 215 70 313 83 48 6 105 9 127 7 34 -3 39 -1
43 20 5 27 6 27 -68 42 -39 8 -91 10 -148 6 -87 -7 -89 -6 -122 21 -44 37
-116 81 -154 94 -17 6 -31 15 -31 20 0 16 38 10 72 -11 37 -22 48 -25 48 -10
0 5 -20 21 -45 36 -64 37 -61 60 5 34 67 -26 69 -26 32 13 -39 40 -68 105 -53
120 7 7 13 3 20 -14 13 -30 138 -166 146 -158 3 3 -13 26 -35 51 -22 26 -40
49 -40 52 0 17 29 0 91 -55 38 -34 69 -59 69 -55 0 3 -18 31 -40 62 -42 60
-60 108 -60 162 0 34 8 40 28 20z m9612 -1554 l0 -196 26 32 c81 96 264 104
343 15 52 -60 61 -111 61 -367 l0 -228 -64 0 -65 0 -3 228 c-3 207 -5 230 -23
262 -41 69 -143 78 -210 19 -55 -48 -65 -100 -65 -321 l0 -188 -65 0 -65 0 0
470 0 470 65 0 65 0 0 -196z m2230 -274 l0 -470 -65 0 -65 0 0 470 0 470 65 0
65 0 0 -470z m-2800 275 l0 -95 75 0 75 0 0 -55 0 -55 -76 0 -75 0 3 -199 c3
-182 5 -201 23 -221 17 -19 28 -21 72 -18 l53 5 0 -33 c0 -18 3 -39 6 -48 9
-22 -37 -37 -113 -38 -78 0 -123 25 -152 86 -19 39 -21 60 -21 254 l0 212 -51
0 -50 0 3 53 3 52 48 3 47 3 0 95 0 94 65 0 65 0 0 -95z m-7255 -96 c37 -11
107 -69 116 -97 3 -9 22 4 54 36 95 94 224 97 311 7 58 -60 64 -94 64 -364 l0
-231 -65 0 -65 0 0 223 c0 194 -3 227 -19 263 -22 47 -63 69 -115 61 -51 -8
-82 -33 -108 -85 -21 -44 -23 -62 -26 -254 l-3 -208 -65 0 -64 0 0 208 c-1
239 -6 276 -51 316 -27 24 -38 28 -74 24 -55 -7 -91 -32 -118 -82 -20 -38 -22
-57 -25 -253 l-3 -213 -65 0 -64 0 0 325 0 325 65 0 65 0 0 -50 0 -49 38 40
c57 61 132 81 217 58z m1320 -15 c71 -25 156 -111 184 -187 28 -76 28 -177 1
-251 -102 -271 -511 -282 -634 -17 -17 37 -21 65 -21 141 0 76 4 104 21 141
43 92 130 163 231 189 51 13 157 5 218 -16z m940 0 c71 -25 156 -111 184 -187
28 -76 28 -177 1 -251 -102 -271 -511 -282 -634 -17 -17 37 -21 65 -21 141 0
76 4 104 21 141 43 92 130 163 231 189 51 13 157 5 218 -16z m844 -5 c27 -11
57 -29 66 -39 15 -17 15 -21 -10 -59 l-27 -40 -32 23 c-108 81 -257 49 -232
-49 7 -27 61 -57 178 -99 102 -37 149 -88 155 -168 16 -204 -294 -290 -466
-129 l-33 31 28 34 c34 40 45 43 68 17 50 -55 193 -81 244 -45 33 23 46 61 31
96 -13 33 -52 55 -151 87 -90 30 -128 57 -156 111 -26 50 -25 106 3 160 18 35
80 79 127 91 50 13 152 2 207 -22z m807 2 c105 -47 164 -137 172 -263 l5 -78
-251 0 -251 0 6 -32 c33 -176 210 -219 413 -101 3 2 16 -13 29 -32 23 -34 23
-36 6 -55 -29 -32 -115 -68 -188 -80 -178 -28 -324 52 -378 207 -28 78 -23
206 10 275 76 157 268 229 427 159z m1286 18 c72 -15 115 -39 166 -90 75 -77
110 -185 92 -292 -12 -77 -32 -119 -81 -172 -129 -140 -367 -147 -499 -15
-152 152 -122 418 59 527 84 50 164 63 263 42z m1007 -14 c42 -21 70 -52 94
-105 19 -41 21 -68 25 -287 l4 -243 -71 0 -71 0 0 226 c0 185 -3 232 -16 259
-32 69 -138 85 -208 32 -56 -44 -66 -90 -66 -319 l0 -198 -70 0 -70 0 2 323 3
322 65 0 65 0 0 -47 0 -47 40 39 c22 22 58 46 80 55 48 18 150 13 194 -10z
m2807 -4 c105 -47 164 -137 172 -263 l5 -78 -251 0 -251 0 6 -32 c33 -176 210
-219 413 -101 3 2 16 -13 29 -32 23 -34 23 -36 6 -55 -29 -32 -115 -68 -188
-80 -178 -28 -324 52 -378 207 -28 78 -23 206 10 275 76 157 268 229 427 159z
m1853 -13 c81 -41 143 -114 167 -195 22 -75 14 -181 -17 -249 -116 -246 -492
-252 -617 -10 -35 70 -43 201 -16 277 21 57 85 136 138 168 97 60 238 64 345
9z m916 16 c71 -25 156 -111 184 -187 28 -76 28 -177 1 -251 -102 -271 -511
-282 -634 -17 -17 37 -21 65 -21 141 0 76 4 104 21 141 43 92 130 163 231 189
51 13 157 5 218 -16z m844 -5 c27 -11 57 -29 66 -39 15 -17 15 -21 -10 -59
l-27 -40 -32 23 c-108 81 -257 49 -232 -49 7 -27 61 -57 178 -99 102 -37 149
-88 155 -168 16 -204 -294 -290 -466 -129 l-33 31 28 34 c34 40 45 43 68 17
50 -55 193 -81 244 -45 33 23 46 61 31 96 -13 33 -52 55 -151 87 -90 30 -128
57 -156 111 -26 50 -25 106 3 160 18 35 80 79 127 91 50 13 152 2 207 -22z
m807 2 c105 -47 164 -137 172 -263 l5 -78 -251 0 -251 0 6 -32 c33 -176 210
-219 413 -101 3 2 16 -13 29 -32 23 -34 23 -36 6 -55 -29 -32 -115 -68 -188
-80 -178 -28 -324 52 -378 207 -28 78 -23 206 10 275 76 157 268 229 427 159z"/>
<path d="M5400 4934 c-144 -62 -174 -277 -53 -383 44 -39 77 -51 144 -51 152
0 247 188 171 337 -50 97 -164 139 -262 97z"/>
<path d="M6340 4934 c-144 -62 -174 -277 -53 -383 44 -39 77 -51 144 -51 152
0 247 188 171 337 -50 97 -164 139 -262 97z"/>
<path d="M7995 4946 c-39 -17 -93 -78 -101 -114 -3 -15 -7 -33 -10 -39 -3 -10
39 -13 187 -13 l189 0 -6 28 c-12 53 -54 112 -94 132 -45 23 -120 26 -165 6z"/>
<path d="M9324 4931 c-74 -34 -116 -108 -116 -206 -1 -136 81 -224 208 -225
71 0 131 33 169 95 27 43 30 57 30 129 0 70 -4 87 -27 128 -51 86 -170 122
-264 79z"/>
<path d="M13095 4946 c-39 -17 -93 -78 -101 -114 -3 -15 -7 -33 -10 -39 -3
-10 39 -13 187 -13 l189 0 -6 28 c-12 53 -54 112 -94 132 -45 23 -120 26 -165
6z"/>
<path d="M14915 4931 c-87 -39 -132 -126 -122 -234 11 -117 93 -197 201 -197
127 1 209 90 209 225 0 65 -20 125 -56 164 -53 58 -156 77 -232 42z"/>
<path d="M15860 4934 c-144 -62 -174 -277 -53 -383 44 -39 77 -51 144 -51 152
0 247 188 171 337 -50 97 -164 139 -262 97z"/>
<path d="M17515 4946 c-39 -17 -93 -78 -101 -114 -3 -15 -7 -33 -10 -39 -3
-10 39 -13 187 -13 l189 0 -6 28 c-12 53 -54 112 -94 132 -45 23 -120 26 -165
6z"/>
</g>
</svg>
