<?xml version="1.0" standalone="no"?>
<!DOCTYPE svg PUBLIC "-//W3C//DTD SVG 20010904//EN"
 "http://www.w3.org/TR/2001/REC-SVG-20010904/DTD/svg10.dtd">
<svg version="1.0" xmlns="http://www.w3.org/2000/svg"
 width="500.000000pt" height="500.000000pt" viewBox="0 0 500.000000 500.000000"
 preserveAspectRatio="xMidYMid meet">

<g transform="translate(0.000000,500.000000) scale(0.100000,-0.100000)"
fill="#0b3939" stroke="none">
<path d="M2335 4744 c-386 -39 -694 -138 -995 -320 -284 -171 -534 -412 -724
-699 -189 -284 -323 -671 -355 -1025 -50 -543 107 -1098 437 -1544 95 -128
328 -362 452 -453 471 -346 1040 -503 1592 -438 721 84 1345 492 1707 1117
227 390 332 866 290 1318 -94 1031 -884 1869 -1910 2024 -101 16 -413 28 -494
20z m386 -1409 c24 -8 85 -35 134 -60 104 -52 162 -63 355 -66 l125 -2 38 37
c53 50 70 47 96 -16 37 -92 43 -98 114 -128 84 -35 93 -42 116 -94 16 -37 24
-43 78 -59 128 -39 146 -68 94 -148 -59 -88 -75 -97 -197 -114 -60 -8 -143
-20 -184 -26 -46 -7 -102 -24 -146 -45 -71 -33 -176 -64 -224 -64 -78 -1 -140
-42 -180 -119 -45 -89 -88 -260 -115 -456 l-17 -119 55 -51 c61 -55 77 -80 77
-119 l0 -26 -235 0 c-217 0 -235 1 -235 18 0 9 -5 56 -10 104 -11 96 -43 194
-100 308 -63 124 -54 119 -215 131 -211 15 -419 -8 -489 -55 -19 -12 -25 -27
-30 -77 -19 -163 -99 -265 -225 -285 l-41 -6 20 -25 c24 -31 44 -89 36 -108
-4 -12 -25 -15 -93 -14 -48 0 -108 4 -133 7 l-44 7 -22 75 c-13 41 -23 102
-23 135 -1 53 4 71 45 152 65 126 66 153 14 383 -52 230 -58 297 -36 376 41
140 137 296 234 377 98 82 176 112 336 128 126 13 240 7 441 -22 77 -12 160
-19 185 -16 26 3 83 25 133 51 79 42 94 46 156 46 38 0 88 -7 112 -15z"/>
</g>
</svg>
