<?xml version="1.0"?>
<svg xmlns="http://www.w3.org/2000/svg" xmlns:xlink="http://www.w3.org/1999/xlink" xmlns:svgjs="http://svgjs.com/svgjs" version="1.1" width="512" height="512" x="0" y="0" viewBox="0 0 504.123 504.123" style="enable-background:new 0 0 512 512" xml:space="preserve" class=""><g>
<circle xmlns="http://www.w3.org/2000/svg" style="" cx="252.062" cy="252.062" r="252.062" fill="#e5f780" data-original="#fd8469" class=""/>
<g xmlns="http://www.w3.org/2000/svg">
	<circle style="" cx="168.96" cy="174.08" r="37.809" fill="#1b2a38" data-original="#1b2a38"/>
	<circle style="" cx="332.8" cy="174.08" r="37.809" fill="#1b2a38" data-original="#1b2a38"/>
</g>
<path xmlns="http://www.w3.org/2000/svg" style="" d="M392.665,192.197c-11.815-25.206-38.991-40.566-67.348-36.628c-3.938,0.394-7.483,1.575-10.24,2.757  c-9.058,4.332-27.569,7.877-42.535,10.24c0,0,0,0,0,0.394c0,12.209-9.846,21.662-21.662,21.662  c-12.209,0-21.662-9.846-21.662-21.662c0,0,0,0,0-0.394c-14.966-2.363-33.477-5.908-42.535-10.24  c-2.757-1.182-6.302-2.363-10.24-2.757c-28.357-3.938-55.532,11.815-67.348,36.628l-33.083,70.105l174.868-33.083l174.868,33.083  L392.665,192.197z" fill="#3f4b5b" data-original="#3f4b5b"/>
<path xmlns="http://www.w3.org/2000/svg" style="" d="M341.858,314.683c-58.289-24.025-124.062-24.025-182.351,0  c-8.665-21.268-17.723-42.535-26.388-64.197c75.225-31.114,159.902-31.114,235.126,0  C359.582,271.754,350.917,293.022,341.858,314.683z" fill="#1b2a38" data-original="#1b2a38"/>
<circle xmlns="http://www.w3.org/2000/svg" style="" cx="148.874" cy="289.871" r="77.982" fill="#2b3b4e" data-original="#2b3b4e" class=""/>
<circle xmlns="http://www.w3.org/2000/svg" style="" cx="148.874" cy="289.871" r="59.865" fill="#0b3939" data-original="#54c0eb" class=""/>
<circle xmlns="http://www.w3.org/2000/svg" style="" cx="148.874" cy="289.871" r="43.323" fill="#136464" data-original="#84dbff" class=""/>
<g xmlns="http://www.w3.org/2000/svg">
	<circle style="" cx="148.874" cy="289.871" r="7.877" fill="#ffffff" data-original="#ffffff" class=""/>
	<circle style="" cx="117.366" cy="267.028" r="11.422" fill="#ffffff" data-original="#ffffff" class=""/>
</g>
<circle xmlns="http://www.w3.org/2000/svg" style="" cx="352.492" cy="289.871" r="77.982" fill="#2b3b4e" data-original="#2b3b4e" class=""/>
<circle xmlns="http://www.w3.org/2000/svg" style="" cx="352.492" cy="289.871" r="59.865" fill="#0b3939" data-original="#54c0eb" class=""/>
<circle xmlns="http://www.w3.org/2000/svg" style="" cx="352.492" cy="289.871" r="43.323" fill="#136464" data-original="#84dbff" class=""/>
<g xmlns="http://www.w3.org/2000/svg">
	<circle style="" cx="352.492" cy="289.871" r="7.877" fill="#ffffff" data-original="#ffffff" class=""/>
	<circle style="" cx="320.985" cy="267.028" r="11.422" fill="#ffffff" data-original="#ffffff" class=""/>
</g>
<circle xmlns="http://www.w3.org/2000/svg" style="" cx="250.88" cy="259.938" r="22.055" fill="#324a5e" data-original="#324a5e" class=""/>
<circle xmlns="http://www.w3.org/2000/svg" style="" cx="250.88" cy="259.938" r="15.36" fill="#2b3b4e" data-original="#2b3b4e" class=""/>
<path xmlns="http://www.w3.org/2000/svg" style="" d="M281.994,178.412c-7.483,21.662-31.114,22.449-31.114,22.449s-24.025-0.788-31.114-22.449  l-11.028-1.969v42.535h42.142h42.142v-42.535L281.994,178.412z" fill="#1b2a38" data-original="#1b2a38"/>
<g xmlns="http://www.w3.org/2000/svg">
</g>
<g xmlns="http://www.w3.org/2000/svg">
</g>
<g xmlns="http://www.w3.org/2000/svg">
</g>
<g xmlns="http://www.w3.org/2000/svg">
</g>
<g xmlns="http://www.w3.org/2000/svg">
</g>
<g xmlns="http://www.w3.org/2000/svg">
</g>
<g xmlns="http://www.w3.org/2000/svg">
</g>
<g xmlns="http://www.w3.org/2000/svg">
</g>
<g xmlns="http://www.w3.org/2000/svg">
</g>
<g xmlns="http://www.w3.org/2000/svg">
</g>
<g xmlns="http://www.w3.org/2000/svg">
</g>
<g xmlns="http://www.w3.org/2000/svg">
</g>
<g xmlns="http://www.w3.org/2000/svg">
</g>
<g xmlns="http://www.w3.org/2000/svg">
</g>
<g xmlns="http://www.w3.org/2000/svg">
</g>
</g></svg>
