<?xml version="1.0" standalone="no"?>
<!DOCTYPE svg PUBLIC "-//W3C//DTD SVG 20010904//EN"
 "http://www.w3.org/TR/2001/REC-SVG-20010904/DTD/svg10.dtd">
<svg version="1.0" xmlns="http://www.w3.org/2000/svg"
 width="500.000000pt" height="500.000000pt" viewBox="0 0 500.000000 500.000000"
 preserveAspectRatio="xMidYMid meet">

<g transform="translate(0.000000,500.000000) scale(0.100000,-0.100000)"
fill="#0b3939" stroke="none">
<path d="M2335 4744 c-293 -30 -491 -79 -721 -179 -271 -118 -468 -251 -678
-455 -267 -260 -450 -550 -565 -895 -235 -706 -115 -1461 327 -2059 95 -128
328 -362 452 -453 535 -393 1189 -538 1815 -403 790 172 1425 745 1673 1511
225 693 98 1454 -341 2039 -90 119 -275 311 -387 400 -323 257 -683 415 -1085
475 -98 15 -411 27 -490 19z m1345 -1682 c15 -12 24 -31 25 -56 2 -33 9 -43
69 -88 37 -28 71 -60 76 -72 22 -57 50 -155 50 -177 0 -29 -53 -69 -91 -69
-14 0 -30 -5 -36 -11 -11 -11 -39 2 -128 57 -36 23 -48 25 -125 21 -128 -5
-200 -49 -200 -123 0 -35 86 -294 130 -389 41 -92 55 -104 125 -111 106 -10
141 -36 115 -84 -34 -64 -198 -48 -281 27 -22 20 -79 91 -127 157 -104 146
-193 237 -254 260 -43 17 -47 17 -149 -10 -73 -18 -130 -27 -189 -27 -95 0
-143 11 -242 54 -78 34 -78 34 -173 -43 -33 -27 -111 -75 -173 -105 -113 -56
-114 -56 -108 -87 3 -17 8 -53 12 -79 6 -43 10 -49 42 -63 49 -20 72 -43 72
-70 0 -34 -33 -47 -108 -42 -57 4 -68 8 -93 36 -32 35 -43 71 -70 221 -28 154
-27 163 26 219 54 56 125 191 125 237 0 35 -13 45 -59 45 -41 0 -62 -21 -121
-117 -138 -227 -333 -340 -539 -312 -122 17 -181 66 -181 148 0 60 26 96 81
112 44 14 107 1 129 -26 20 -24 4 -59 -37 -79 -36 -17 -37 -19 -18 -32 36 -27
160 -9 252 36 113 56 186 145 265 324 58 132 101 182 203 232 138 67 288 69
541 5 162 -40 200 -45 274 -31 37 7 142 12 240 12 127 -1 210 4 302 18 70 11
146 20 170 20 37 0 47 5 79 40 40 44 65 49 99 22z"/>
</g>
</svg>
