<?xml version="1.0" standalone="no"?>
<!DOCTYPE svg PUBLIC "-//W3C//DTD SVG 20010904//EN"
 "http://www.w3.org/TR/2001/REC-SVG-20010904/DTD/svg10.dtd">
<svg version="1.0" xmlns="http://www.w3.org/2000/svg"
 width="500.000000pt" height="500.000000pt" viewBox="0 0 500.000000 500.000000"
 preserveAspectRatio="xMidYMid meet">

<g transform="translate(0.000000,500.000000) scale(0.100000,-0.100000)"
fill="#0b3939" stroke="none">
<path d="M2335 4744 c-565 -57 -1019 -263 -1399 -633 -196 -192 -335 -382
-451 -616 -374 -756 -292 -1656 213 -2339 95 -128 328 -362 452 -453 535 -393
1189 -538 1815 -403 714 155 1311 644 1600 1313 219 506 242 1069 64 1602
-265 797 -964 1383 -1800 1509 -101 16 -413 28 -494 20z m182 -881 c54 -70
124 -141 153 -153 39 -16 62 -2 96 60 18 34 36 53 53 57 35 9 75 -16 79 -49 4
-33 -30 -102 -71 -145 l-30 -32 37 -46 c44 -53 108 -104 113 -90 2 6 12 25 23
43 16 26 26 32 55 32 26 0 39 -6 51 -25 17 -25 14 -49 -12 -112 -4 -8 2 -13
14 -13 33 0 125 -36 186 -73 33 -20 81 -42 108 -48 60 -16 81 -37 72 -73 -12
-51 -45 -61 -181 -59 -114 3 -125 1 -144 -18 -37 -37 -23 -99 54 -231 124
-213 145 -282 127 -421 -18 -147 -75 -259 -190 -372 -69 -69 -91 -121 -111
-271 -24 -183 35 -462 142 -676 11 -21 19 -40 19 -43 0 -3 -42 -5 -94 -5 l-93
0 -35 78 c-86 188 -137 362 -153 526 -6 58 -17 89 -75 200 -37 72 -69 137 -71
144 -3 10 -24 10 -104 -4 -113 -18 -192 -14 -267 13 l-51 18 -91 -96 c-151
-159 -244 -309 -267 -434 -18 -97 -6 -236 30 -343 17 -51 31 -95 31 -98 0 -3
-39 -3 -87 -2 l-88 3 -27 109 c-37 143 -51 310 -38 435 13 135 33 193 80 239
56 56 68 107 44 197 -12 44 -19 102 -18 155 0 75 4 93 32 149 25 49 28 61 14
56 -88 -37 -170 -44 -227 -21 -138 58 21 178 286 217 132 19 314 15 489 -10
214 -32 381 -27 460 11 104 51 117 127 56 325 -33 106 -53 194 -58 258 -3 29
-5 30 -64 37 -82 9 -134 31 -134 58 0 39 83 52 161 25 23 -9 46 -12 51 -7 13
13 -195 233 -246 259 -76 39 -216 196 -216 243 0 32 30 60 65 60 28 0 40 -7
62 -37z"/>
</g>
</svg>
