<?xml version="1.0" standalone="no"?>
<!DOCTYPE svg PUBLIC "-//W3C//DTD SVG 20010904//EN"
 "http://www.w3.org/TR/2001/REC-SVG-20010904/DTD/svg10.dtd">
<svg version="1.0" xmlns="http://www.w3.org/2000/svg"
 width="500.000000pt" height="500.000000pt" viewBox="0 0 500.000000 500.000000"
 preserveAspectRatio="xMidYMid meet">

<g transform="translate(0.000000,500.000000) scale(0.100000,-0.100000)"
fill="#0b3939" stroke="none">
<path d="M2335 4744 c-386 -39 -694 -138 -995 -320 -284 -171 -534 -412 -724
-699 -189 -284 -323 -671 -355 -1025 -50 -545 106 -1097 437 -1544 95 -128
328 -362 452 -453 535 -393 1189 -538 1815 -403 889 193 1580 901 1744 1786
72 390 46 750 -80 1129 -265 797 -964 1383 -1800 1509 -101 16 -413 28 -494
20z m-1020 -1148 c125 -59 230 -179 281 -321 15 -41 19 -96 24 -310 5 -242 7
-263 27 -301 44 -82 134 -130 196 -105 18 7 64 25 102 39 l70 27 460 5 c450 6
461 6 525 29 109 39 114 44 169 162 51 111 68 129 119 129 31 0 55 -19 125
-99 34 -37 48 -45 102 -56 86 -18 134 -44 245 -133 139 -112 140 -113 140
-172 0 -89 -47 -170 -127 -217 -39 -23 -62 -28 -158 -34 -136 -9 -185 -29
-250 -101 -49 -55 -75 -122 -75 -198 0 -25 20 -147 45 -269 25 -123 42 -234
39 -247 -12 -48 -48 -64 -145 -64 -48 0 -98 5 -111 11 -13 5 -48 47 -78 92
l-55 82 -5 -73 c-7 -104 -18 -111 -173 -112 -118 0 -119 0 -148 29 l-29 29 0
166 0 166 -130 0 -130 0 0 -166 0 -166 -29 -29 c-29 -29 -30 -29 -151 -29
-115 0 -122 1 -145 25 -24 23 -25 30 -25 151 0 116 -1 126 -17 119 -10 -4 -25
-9 -34 -12 -9 -3 -30 -48 -53 -120 -53 -162 -55 -163 -205 -163 -112 0 -122 2
-148 24 l-28 24 -2 343 -3 343 -77 40 c-108 56 -234 182 -286 286 -67 135 -67
139 -67 686 l0 493 28 21 c37 30 89 23 187 -24z"/>
<path d="M3090 2419 c-122 -64 -161 -69 -620 -69 -448 0 -479 -4 -597 -63
-140 -69 -163 -118 -163 -337 l1 -125 19 54 c56 155 178 261 334 290 37 7 214
11 461 11 369 0 408 2 480 20 94 24 211 79 245 114 34 38 33 91 -4 122 -37 33
-68 29 -156 -17z"/>
</g>
</svg>
