<?xml version="1.0" standalone="no"?>
<!DOCTYPE svg PUBLIC "-//W3C//DTD SVG 20010904//EN"
 "http://www.w3.org/TR/2001/REC-SVG-20010904/DTD/svg10.dtd">
<svg version="1.0" xmlns="http://www.w3.org/2000/svg"
 width="500.000000pt" height="500.000000pt" viewBox="0 0 500.000000 500.000000"
 preserveAspectRatio="xMidYMid meet">

<g transform="translate(0.000000,500.000000) scale(0.100000,-0.100000)"
fill="#0b3939" stroke="none">
<path d="M2335 4744 c-565 -57 -1019 -263 -1399 -633 -196 -192 -335 -382
-451 -616 -374 -756 -292 -1657 213 -2339 95 -128 328 -362 452 -453 471 -346
1040 -503 1592 -438 718 84 1341 490 1703 1109 273 466 366 1031 259 1566
-185 925 -938 1642 -1875 1784 -101 16 -413 28 -494 20z m1014 -1278 c12 -37
21 -76 21 -87 0 -13 10 -20 38 -25 91 -16 154 -66 213 -165 55 -95 87 -119
155 -119 30 0 70 -7 89 -14 33 -14 35 -18 35 -60 0 -65 -16 -72 -180 -80 -147
-6 -253 -25 -301 -53 -17 -10 -77 -79 -132 -153 -153 -204 -212 -276 -308
-375 -100 -104 -105 -116 -103 -265 2 -141 50 -312 126 -447 37 -65 44 -71
108 -83 55 -10 90 -33 90 -57 0 -25 -67 -44 -154 -44 -92 0 -107 4 -153 38
-27 20 -37 40 -64 126 -64 209 -190 501 -261 604 -32 48 -64 68 -134 83 -69
16 -272 13 -347 -4 -80 -19 -228 -108 -311 -188 -58 -56 -59 -58 -53 -100 13
-96 117 -412 144 -439 5 -5 32 -13 61 -19 67 -12 92 -26 92 -49 0 -28 -21 -40
-88 -49 -79 -11 -162 0 -206 28 -28 17 -41 36 -65 98 -112 291 -148 516 -101
621 30 64 26 81 -31 136 -64 63 -91 114 -98 190 -4 44 -10 60 -21 60 -16 0
-18 -8 -44 -152 -10 -52 -25 -97 -42 -125 -68 -106 -103 -229 -89 -305 8 -43
-8 -43 -51 2 -56 60 -77 131 -82 287 -4 122 -2 143 18 205 83 251 253 435 470
509 139 47 272 50 480 10 325 -61 376 -68 465 -63 105 6 190 33 327 103 112
59 230 146 296 219 41 47 50 65 61 122 16 82 46 164 63 174 21 13 45 -20 67
-95z"/>
</g>
</svg>
